<?xml version="1.0" standalone="no"?>
<!DOCTYPE svg PUBLIC "-//W3C//DTD SVG 20010904//EN"
 "http://www.w3.org/TR/2001/REC-SVG-20010904/DTD/svg10.dtd">
<svg version="1.0" xmlns="http://www.w3.org/2000/svg"
 width="400.000000pt" height="400.000000pt" viewBox="0 0 400.000000 400.000000"
 preserveAspectRatio="xMidYMid meet">
<metadata>
Created by potrace 1.14, written by Peter Selinger 2001-2017
</metadata>
<g transform="translate(0.000000,400.000000) scale(0.100000,-0.100000)"
fill="#000000" stroke="none">
<path d="M1897 3589 c-169 -18 -368 -98 -494 -199 -124 -100 -221 -245 -259
-390 -24 -89 -24 -265 0 -345 87 -292 328 -456 842 -574 441 -102 677 -210
840 -384 38 -41 84 -102 102 -137 l32 -63 0 44 c-1 116 -64 288 -148 401 -141
190 -346 309 -676 393 -441 112 -564 194 -597 395 -28 172 79 373 238 450 40
19 52 30 53 48 0 18 5 22 35 22 l35 0 0 59 c0 33 4 71 10 85 8 21 48 55 81 68
4 2 10 33 13 71 7 61 6 67 -11 66 -10 -1 -53 -5 -96 -10z"/>
<path d="M2044 3594 c-7 -3 -9 -24 -6 -57 5 -60 17 -87 37 -87 8 0 25 -15 39
-33 22 -29 26 -45 26 -100 l0 -67 35 0 c31 0 35 -3 35 -25 0 -19 12 -32 53
-58 28 -18 76 -60 105 -92 96 -105 132 -206 132 -372 l0 -103 200 0 200 0 0
73 c-1 270 -63 469 -196 631 -125 151 -343 264 -544 282 -36 3 -74 7 -85 9
-11 1 -25 1 -31 -1z"/>
<path d="M1980 3371 c-5 -11 -10 -42 -10 -70 l0 -51 50 0 50 0 0 51 c0 66 -13
89 -50 89 -19 0 -33 -7 -40 -19z"/>
<path d="M1750 2861 c-5 -11 -10 -74 -10 -140 l0 -121 55 0 55 0 0 121 c0 66
-5 129 -10 140 -7 13 -21 19 -45 19 -24 0 -38 -6 -45 -19z"/>
<path d="M1982 2868 c-8 -8 -12 -54 -12 -140 l0 -128 50 0 50 0 0 128 c0 138
-5 152 -50 152 -14 0 -31 -5 -38 -12z"/>
<path d="M2200 2861 c-5 -11 -10 -74 -10 -140 l0 -121 55 0 55 0 0 121 c0 66
-5 129 -10 140 -7 13 -21 19 -45 19 -24 0 -38 -6 -45 -19z"/>
<path d="M1060 2429 c0 -217 131 -422 368 -576 134 -88 262 -142 547 -228 333
-102 481 -237 493 -450 12 -233 -90 -383 -315 -462 -74 -26 -87 -28 -253 -27
-162 0 -182 2 -264 27 -167 52 -283 116 -420 232 l-66 56 -32 -66 -32 -65 19
-37 c28 -52 159 -182 234 -233 92 -62 233 -126 341 -155 269 -72 619 -45 849
65 203 97 315 217 382 407 30 83 38 274 15 363 -47 183 -153 321 -341 443
-148 95 -280 146 -565 217 -442 112 -693 229 -849 395 -32 34 -70 86 -84 116
l-27 53 0 -75z"/>
</g>
</svg>
